<?xml version="1.0" encoding="UTF-8" standalone="no"?><!DOCTYPE svg PUBLIC "-//W3C//DTD SVG 1.1//EN" "http://www.w3.org/Graphics/SVG/1.1/DTD/svg11.dtd"><svg width="100%" height="100%" viewBox="0 0 800 800" version="1.1" xmlns="http://www.w3.org/2000/svg" xmlns:xlink="http://www.w3.org/1999/xlink" xml:space="preserve" xmlns:serif="http://www.serif.com/" style="fill-rule:evenodd;clip-rule:evenodd;stroke-linejoin:round;stroke-miterlimit:2;"><path d="M508.961,772.191l-95.618,-161.586c-12.209,-20.619 -11.725,-46.588 -0.989,-73.699l-4.438,-7.132c-2.267,-0.523 -3.934,-0.95 -5.271,-1.318c0,0.02 0.02,0.02 0,0.058c-0.368,-0.116 -0.717,-0.29 -1.085,-0.426c-0.601,-0.174 -1.163,-0.388 -1.608,-0.562c-0.02,0.019 -0,-0.039 -0.02,-0c-7.674,-3.081 -13.449,-7.655 -17.189,-13.701c-3.004,-4.845 -4.593,-10.504 -4.748,-16.802c-0.058,-2.81 0.736,-9.942 1.88,-13.062c-13.663,-29.883 30.289,-86.296 100.307,-127.749c71.936,-42.557 144.473,-53.409 161.74,-24.243l8.857,15.639c3.391,0.62 9.593,3.197 11.918,4.554c5.465,3.159 9.67,7.267 12.461,12.248c3.915,6.899 5,15.154 3.295,24.515c-0.02,-0 -0.02,-0.02 -0.039,-0.02c-0.31,2.093 -0.717,4.051 -1.202,5.407l0.717,1.24c17.325,29.302 -26.453,87.285 -97.827,129.493c-63.584,37.635 -127.535,50.038 -153.019,31.589c0.678,5.969 2.422,11.55 5.407,16.569c22.887,38.681 107.71,30.852 189.452,-17.519c69.01,-40.852 113.757,-97.497 112.246,-137.458c0.387,0.62 0.775,1.221 1.143,1.822l41.743,70.502c-32.441,135.055 -135.655,242.785 -268.113,281.641m-496.849,-372.201c0,-11.802 0.62,-23.468 1.647,-35.018c40.581,-29.399 95.114,-50.871 160.423,-32.713l154.318,-177.205c5.755,45.019 47.925,110.754 96.625,131.354l-145.209,165.81c-17.403,18.139 -58.952,9.922 -90.134,-17.345c-31.239,-27.305 -44.572,-68.331 -29.108,-87.129l6.996,-8.024c-11.821,2.5 -22.073,7.907 -29.611,16.55c-26.976,30.833 -9.884,89.921 38.138,131.896c48.022,41.976 108.835,51.026 135.811,20.174c1.143,-1.298 2.112,-2.751 3.081,-4.166c1.202,56.336 -22.732,114.745 -68.545,158.387c-11.472,10.911 -35.638,34.011 -62.362,59.573c-103.699,-69.708 -172.07,-188.097 -172.07,-322.144m444.951,-193.057c-13.547,-5.775 -28.798,-15.465 -43.43,-28.275c-33.855,-29.669 -51.607,-64.843 -39.611,-78.525c1.977,-2.248 4.709,-3.721 7.926,-4.573c7.868,-2.074 19.031,-0.155 31.724,5.232c13.566,5.795 28.798,15.465 43.41,28.275c28.294,24.805 45.251,53.351 43.119,70.075c-0.446,3.314 -1.512,6.202 -3.508,8.45c-6.802,7.79 -21.782,6.957 -39.63,-0.659m-122.052,-76.549l16.008,-18.565c3.624,-4.108 7.422,-7.112 11.143,-9.418c-2.752,9.282 -0.93,21.705 5.93,35.328c8.042,15.891 21.995,32.984 39.262,48.139c14.961,13.081 30.852,23.429 45.968,29.863c17.481,7.461 32.383,8.74 42.596,4.128c-1.802,3.934 -4.244,8.042 -7.771,12.054l-16.027,18.604c-4.321,4.923 -11.569,6.725 -20.658,5.833c-0,0 -1.027,0 -1.357,-0.155c-19.069,-2.364 -45.735,-16.065 -70.792,-38.041c-2.093,-1.861 -4.128,-3.702 -6.124,-5.601c-0.543,-0.484 -1.047,-0.969 -1.589,-1.473c-1.725,-1.666 -3.431,-3.352 -5.058,-5.019c-0.233,-0.271 -0.466,-0.504 -0.698,-0.717c-1.802,-1.88 -3.527,-3.721 -5.194,-5.601c-0.504,-0.562 -0.969,-1.104 -1.453,-1.628c-1.337,-1.531 -2.616,-3.062 -3.876,-4.554c-0.349,-0.446 -0.717,-0.872 -1.047,-1.279c-1.472,-1.821 -2.848,-3.643 -4.205,-5.426c-0.426,-0.601 -0.872,-1.182 -1.279,-1.783c-1.008,-1.376 -1.938,-2.694 -2.849,-4.05c-0.387,-0.543 -0.775,-1.105 -1.143,-1.706c-1.144,-1.705 -2.171,-3.391 -3.178,-5.077c-0.369,-0.62 -0.717,-1.24 -1.066,-1.86c-0.679,-1.183 -1.318,-2.365 -1.919,-3.528c-0.349,-0.658 -0.697,-1.298 -1.008,-1.957c-0.775,-1.57 -1.511,-3.12 -2.131,-4.651c-0.291,-0.601 -0.523,-1.221 -0.737,-1.822c-0.445,-1.046 -0.814,-2.054 -1.162,-3.061c-0.214,-0.679 -0.446,-1.318 -0.64,-1.977c-0.426,-1.395 -0.833,-2.791 -1.124,-4.147c-1.957,-8.721 -1.066,-15.988 3.178,-20.853m64.979,-130.384c-220.556,0 -399.99,179.434 -399.99,399.99c-0,220.576 179.434,400.01 399.99,400.01c220.557,-0 399.991,-179.434 399.991,-400.01c-0,-220.556 -179.434,-399.99 -399.991,-399.99" style="fill:#06897a;fill-rule:nonzero;"/></svg>