<?xml version="1.0" encoding="UTF-8" standalone="no"?><!DOCTYPE svg PUBLIC "-//W3C//DTD SVG 1.1//EN" "http://www.w3.org/Graphics/SVG/1.1/DTD/svg11.dtd"><svg width="100%" height="100%" viewBox="0 0 800 800" version="1.1" xmlns="http://www.w3.org/2000/svg" xmlns:xlink="http://www.w3.org/1999/xlink" xml:space="preserve" xmlns:serif="http://www.serif.com/" style="fill-rule:evenodd;clip-rule:evenodd;stroke-linejoin:round;stroke-miterlimit:2;"><path d="M400.024,0c-220.582,0 -400.024,179.442 -400.024,399.976c0,220.582 179.442,400.024 400.024,400.024c220.534,0 399.976,-179.442 399.976,-400.024c0,-92.198 -31.362,-177.213 -83.978,-244.938c-73.24,-94.27 -187.661,-155.038 -315.998,-155.038m276.359,671.924c-70.459,71.525 -168.297,115.961 -276.359,115.961c-127.348,0 -240.547,-61.687 -311.345,-156.714l1.793,-8.916l22.872,-106.9l23.648,-55.678l27.476,-74.287l60.912,-42.789l51.851,-18.317l32.515,-11.291l39.155,-10.031l47.634,2.762l5.815,-8.48l10.031,-8.965l-47.683,-70.216l1.405,-20.353l-39.639,-83.639l38.719,-14.198l4.749,10.612l21.176,-9.498l19.286,6.542l24.423,-4.603l39.542,7.995l18.318,18.802l20.013,23.406l11.533,10.564l9.159,15.603l12.357,7.899l9.449,7.559l4.022,26.798l0.872,16.718l-11.29,1.89l-11.194,7.317l-27.089,17.978l-59.943,11.243l-2.18,10.612l0.581,11.097l-0.92,10.855l49.427,14.101l62.705,16.767l22.388,18.317l65.952,95.851l30.626,59.846l6.735,55.049l-11.193,69.247l1.696,33.484Z" style="fill:#7a2182;fill-rule:nonzero;"/><path d="M473.715,355.854l-37.652,-18.85l-27.961,4.652l-26.313,-15.022l-127.833,54.758l-53.401,118.868l13.956,-6.348l58.974,-92.264l101.084,-46.714l-32.758,36.925l13.084,4.07l-15.507,99.389l52.481,-102.538l25.198,-20.353l54.08,124.248l-0.533,-57.181l-14.732,-73.076l95.512,51.609l76.661,67.89l-63.19,-87.807l-91.15,-42.256Z" style="fill:#7a2182;fill-rule:nonzero;"/></svg>