<?xml version="1.0" encoding="UTF-8" standalone="no"?><!DOCTYPE svg PUBLIC "-//W3C//DTD SVG 1.1//EN" "http://www.w3.org/Graphics/SVG/1.1/DTD/svg11.dtd"><svg width="100%" height="100%" viewBox="0 0 800 800" version="1.1" xmlns="http://www.w3.org/2000/svg" xmlns:xlink="http://www.w3.org/1999/xlink" xml:space="preserve" xmlns:serif="http://www.serif.com/" style="fill-rule:evenodd;clip-rule:evenodd;stroke-linejoin:round;stroke-miterlimit:2;"><path d="M400.01,800.012c-220.578,-0 -400.01,-179.451 -400.01,-399.991c0,-220.578 179.432,-400.048 400.01,-400.048c220.558,0 399.99,179.47 399.99,400.048c0,220.54 -179.432,399.991 -399.99,399.991" style="fill:#709b30;fill-rule:nonzero;"/><path d="M201.386,714l30.097,-10.42l42.024,-41.49l3.664,-39.008l-8.016,-20.955l28.684,-36.986l-20.038,-44.314l-32.597,-41.756l-18.244,-27.253c-1.737,-0.248 -3.569,-0.534 -5.134,-0.801c-6.183,-1.298 -10.115,-2.882 -13.149,-5.306l-4.542,-3.645l-0.096,-5.821c-0.095,-6.985 4.18,-14.466 12.691,-22.214c17.52,-15.916 49.715,-30.287 82.082,-26.68c2.233,0.248 4.428,0.572 6.527,1.031c25.325,5.21 41.7,22.729 54.83,36.871c5.305,5.668 10.344,10.916 15.058,14.485c5.553,-20.402 16.05,-65.956 -4.714,-142.122c0.095,0.019 0.114,0.019 0.171,0.038c2.214,0.458 4.867,0.649 7.711,0.515c2.461,-0.114 6.87,-0.591 10.152,-2.232c10.325,48.875 6.68,109.182 -0.61,148.419c18.55,2.099 35.344,-4.427 51.642,-10.859c14.962,-5.897 29.047,-11.508 42.807,-8.645c28.302,5.802 69.238,55.631 72.711,73.265c0.916,4.809 -0.591,9.638 -4.179,13.245c-5.535,5.534 -20.669,8.091 -39.963,9.026l-5.172,3.226c0,-0 -31.699,46.375 -35.402,47.348c-3.721,1.012 -20.706,25.535 -20.706,25.535l-40.879,42.425l-10.687,22.329l9.408,34.352l-3.931,22.863l50.898,56.203c-14.141,1.603 -28.493,2.5 -43.054,2.5c-77.54,0 -149.718,-23.283 -210.044,-63.169m-145.881,-180.367c-10.763,-27.501 -18.416,-56.547 -22.539,-86.681c37.444,-85.079 61.7,-159.737 78.304,-176.646c29.6,-30.268 45.955,-39.982 71.834,-25.974c0.133,0.058 0.21,0.115 0.324,0.134c2.118,1.183 4.313,2.519 6.584,4.008c0.286,0.152 0.535,0.305 0.84,0.534c2.08,1.355 4.218,2.92 6.47,4.561c0.458,0.363 0.877,0.63 1.335,1.012c2.615,1.984 5.344,4.16 8.207,6.526c4.122,3.398 7.653,6.814 10.916,10.115c1.202,1.222 2.462,2.5 3.569,3.741c2.214,2.5 4.179,4.924 6.011,7.385c1.584,2.119 2.978,4.275 4.237,6.432c3.97,6.718 6.584,13.321 7.195,19.886c0.821,9.027 -1.298,18.34 -6.756,29.733c-5.534,0.916 -10.687,2.5 -15.382,4.752c-0.573,0.287 -1.107,0.535 -1.66,0.84c-16.985,-10.248 -17.749,33.112 -35.688,41.7c-23.779,11.393 -70.765,34.256 -65.822,60.287c-17.863,13.875 -53.895,58.914 -57.979,87.655m332.623,-243.288c0.095,1.202 -2.233,2.309 -5.611,2.958c-0.019,-0.038 -0.057,-0.038 -0.115,-0c-1.297,0.229 -2.691,0.401 -4.256,0.477c-2.519,0.134 -4.752,-0.038 -6.565,-0.401c-1.068,-0.267 -1.813,-0.534 -2.481,-0.839c-0.706,-0.382 -1.24,-0.821 -1.202,-1.336c-0.114,-1.68 4.37,-3.207 9.962,-3.436c2.538,-0.133 4.809,0.02 6.584,0.401c2.252,0.477 3.664,1.222 3.684,2.176m-153,-12.52c-2.462,-9.16 -27.425,-35.993 -47.998,-40.993c11.871,-11.107 33.646,-34.638 40.803,-45.478l46.814,-70.88c10.401,-15.706 21.165,-19.618 17.042,-10.534c-17.214,38.111 -25.554,60.058 17.997,-4.981c9.294,-13.932 18.34,-15.42 14.39,-6.871c-11.203,24.085 -44.753,73.075 9.599,10.096c5.84,-6.813 5.191,5.802 -6.87,20.306l-48.093,57.845c-12.061,14.542 -9.542,17.195 5.573,5.878l108.017,-80.537c15.115,-11.259 17.463,-8.721 5.23,5.611l-24.619,28.875c-23.264,28.245 -49.887,45.784 9.179,12.424c10.115,-5.63 19.81,-8.531 19.81,-8.531c17.31,-7.481 18.397,-5.439 2.424,4.6l-119.03,74.753c-15.974,10.058 0.783,3.893 18.627,-2.175l115.174,-35.078c17.882,-6.087 20.783,-0.992 6.489,11.337c-0,-0 -105.804,76.375 -190.558,74.333m293.595,79.239c-10.688,-21.909 -76.491,-47.902 -82.77,-93.685c-3.836,-27.978 33.532,-23.341 27.864,-52.864c-5.172,-26.642 -24.715,-98.8 6.507,-110.404c39.639,-14.828 63.113,40.058 89.163,43.914c21.031,3.072 25.344,-17.806 43.054,-5.44c29.638,20.65 19.008,69.162 33.455,82.102c18.379,16.412 39.181,-25.631 54.334,16.47c18.168,50.516 -24.352,107.101 -15.745,120.728c5.21,8.149 9.657,4.026 18.55,18.073c12.844,20.248 -29.218,115.918 -41.203,142.255c3.282,35.077 1.507,79.257 -13.836,127.121c-3.378,-2.061 -8.073,-2.92 -10.764,-3.244c-2.977,-0.363 -5.84,-0.382 -8.264,-0.076c-0.057,-0 -0.076,0.057 -0.171,0.076c22.939,-58.818 24.943,-93.094 22.577,-114.449l-92.426,-71.777c-32.043,-26.661 -38.551,-50.745 -40.116,-59.219c-3.607,-19.237 19.295,-20.191 9.791,-39.581" style="fill:#fff;fill-rule:nonzero;"/><path d="M284.896,449.398c-3.836,-1.622 -8.492,-2.824 -13.473,-3.874c-16.012,-3.244 -35.784,-4.351 -47.063,-6.622c-3.721,-0.744 -14.256,2.462 -15.687,1.259c-0.172,-10.878 46.528,-45.268 88.8,-40.516c1.813,0.191 3.626,0.496 5.401,0.859c38.226,7.882 53.932,41.642 77.387,46.471c42.596,8.74 75.88,-14.886 99.64,-10.001c23.722,4.867 64.734,60.822 67.139,73.151c2.404,12.233 -110.156,-0.687 -166.13,-12.214c-34.18,-7.023 -60.326,-34.028 -96.014,-48.513" style="fill:#709b30;fill-rule:nonzero;"/><path d="M623.034,459.196c-30.669,-21.565 -49.62,-35.898 -71.319,-55.631c27.883,16.852 54.506,33.799 66.242,40.173c-8.206,-24.772 -19.027,-55.421 -29.714,-83.743c-17.061,-10.84 -59.047,-37.71 -73.742,-50.421c33.054,16.718 57.692,31.471 68.303,36.223c-28.569,-74.372 -62.12,-153.153 -79.525,-184.738c24.81,31.986 50.001,80.441 71.739,127.885c2.862,-9.714 11.488,-44.887 16.679,-64.467c0.554,9.733 -7.156,61.509 -9.809,78.819c13.016,29.542 25.878,62.558 36.184,89.658c2.882,-8.531 15.439,-51.833 24.008,-86.853c-0.076,17.481 -12.882,81.567 -17.405,103.762c6.909,18.684 15.459,45.65 20.84,71.338c1.661,11.965 -4.141,20.267 -6.965,23.416c-5.42,-24.027 -13.779,-39.905 -15.516,-45.421" style="fill:#709b30;fill-rule:nonzero;"/></svg>