<?xml version="1.0" encoding="UTF-8" standalone="no"?><!DOCTYPE svg PUBLIC "-//W3C//DTD SVG 1.1//EN" "http://www.w3.org/Graphics/SVG/1.1/DTD/svg11.dtd"><svg width="100%" height="100%" viewBox="0 0 800 800" version="1.1" xmlns="http://www.w3.org/2000/svg" xmlns:xlink="http://www.w3.org/1999/xlink" xml:space="preserve" xmlns:serif="http://www.serif.com/" style="fill-rule:evenodd;clip-rule:evenodd;stroke-linejoin:round;stroke-miterlimit:2;"><path d="M400,0c-220.591,0 -400,179.457 -400,400c0,220.591 179.409,400 400,400c220.591,-0 400,-179.409 400,-400c-0,-220.543 -179.409,-400 -400,-400" style="fill:#62baea;fill-rule:nonzero;"/><g><clipPath id="_clip1"><path d="M8.164,400.005c-0,216.085 175.775,391.812 391.86,391.812c216.037,-0 391.764,-175.727 391.764,-391.812c-0,-216.037 -175.727,-391.812 -391.764,-391.812c-216.085,-0 -391.86,175.775 -391.86,391.812Z" clip-rule="nonzero"/></clipPath><g clip-path="url(#_clip1)"><path d="M535.809,468.406c-0.484,1.211 -1.55,2.132 -2.81,2.471c-0.388,0.097 -0.727,0.145 -1.114,0.145c-0.921,0 -1.793,-0.29 -2.568,-0.872l-90.407,-68.75l158.769,393.702l112.016,-72.868l-145.01,-322.966l-28.876,69.138Zm22.238,-75.291l-113.469,1.938l85.514,65.02l27.955,-66.958Zm12.161,-2.228l146.948,327.277l148.934,-68.799l-142.926,-327.955l-152.956,69.477Zm134.981,-70.591l-98.159,1.211l5.233,14.196c0.145,0.532 0.193,1.065 0.048,1.598c-0.339,1.454 -3.537,9.351 -32.558,20.688c-15.504,6.057 -26.599,7.558 -33.721,7.558c-6.638,0 -9.932,-1.308 -10.174,-1.405c-0.727,-0.29 -1.26,-0.872 -1.551,-1.598l-4.409,-11.628l-79.166,35.562l112.887,-1.938l141.57,-64.244Zm-138.178,36.191l-11.386,-30.281c-3.343,0.969 -7.219,1.938 -11.192,2.762l11.386,30.136c3.246,-0.533 6.977,-1.405 11.192,-2.617m-3.537,-38.517c18.798,-6.492 28.585,-13.13 30.329,-15.746c-3.294,-1.211 -17.054,-0.049 -36.918,6.831c-18.799,6.492 -28.586,13.179 -30.33,15.746c3.295,1.212 17.006,0.049 36.919,-6.831m-32.752,12.742c-0.921,0 -1.744,-0.048 -2.568,-0.145l10.853,28.73c1.889,0.437 6.25,1.115 13.469,0.291l-11.337,-29.99c-3.683,0.678 -7.268,1.114 -10.417,1.114m66.521,12.985c6.153,-3.586 8.527,-6.153 9.351,-7.268l-10.514,-28.682c-2.374,2.229 -5.91,4.457 -9.932,6.589l11.095,29.361Zm-2.955,1.647l-11.095,-29.506c-3.343,1.647 -6.928,3.198 -10.465,4.603l11.24,29.796c4.118,-1.744 7.558,-3.391 10.32,-4.893m-16.57,7.461c1.114,-0.436 2.18,-0.872 3.198,-1.259l-11.289,-29.894c-1.454,0.533 -2.955,1.066 -4.361,1.551c-0.387,0.145 -2.858,1.017 -6.492,2.083l11.434,30.232c2.374,-0.775 4.845,-1.647 7.51,-2.713" style="fill:#fff;fill-rule:nonzero;"/><path d="M296.255,593.871c-53.973,-38.711 -85.271,-87.064 -77.423,-116.618l-19.961,12.645l-0.145,0.097c-0.097,0.146 -0.194,0.291 -0.291,0.485c-0.145,0.193 -0.291,0.436 -0.436,0.629c-0.097,0.243 -0.242,0.437 -0.388,0.679c-0.096,0.242 -0.242,0.484 -0.387,0.727l-0.727,1.453c-0.048,0.145 -0.097,0.291 -0.194,0.485c-0.145,0.339 -0.29,0.726 -0.436,1.065c0,0.097 -0.048,0.194 -0.097,0.291c-10.61,29.215 24.71,84.399 81.735,125.291c56.056,40.213 118.508,56.153 143.701,38.178l0,-0.048c0.388,-0.243 0.776,-0.533 1.115,-0.824c0.097,-0.097 0.194,-0.145 0.29,-0.242c0.291,-0.242 0.582,-0.436 0.824,-0.679c0.194,-0.145 0.339,-0.29 0.485,-0.436c0.193,-0.193 0.387,-0.387 0.629,-0.581c0.194,-0.194 0.34,-0.388 0.533,-0.581c0.146,-0.146 0.34,-0.34 0.485,-0.533c0.194,-0.194 0.387,-0.436 0.533,-0.63c0.194,-0.194 0.339,-0.339 0.484,-0.533c0.097,-0.145 0.194,-0.291 0.339,-0.436l4.797,-24.128c-25.339,17.151 -81.347,3.052 -135.465,-35.756m75.145,78.537c-0.194,-0 -0.387,-0.049 -0.581,-0.097c-1.26,-0.242 -2.471,-0.484 -3.731,-0.727c-0.291,-0.048 -0.533,-0.145 -0.823,-0.193c-1.018,-0.194 -2.035,-0.437 -3.101,-0.679c-0.339,-0.097 -0.63,-0.145 -0.969,-0.242c-1.211,-0.291 -2.374,-0.581 -3.586,-0.921c-0.387,-0.096 -0.823,-0.242 -1.259,-0.339c-0.921,-0.242 -1.89,-0.533 -2.907,-0.823c-0.339,-0.097 -0.678,-0.194 -1.018,-0.291c-1.211,-0.339 -2.422,-0.727 -3.633,-1.114c-0.436,-0.146 -0.872,-0.291 -1.26,-0.436c-1.163,-0.388 -2.326,-0.776 -3.488,-1.163c-0.243,-0.097 -0.436,-0.146 -0.679,-0.242c-1.259,-0.437 -2.519,-0.873 -3.779,-1.357c-0.339,-0.097 -0.678,-0.242 -1.017,-0.388c-1.357,-0.484 -2.713,-1.017 -4.118,-1.55c-0.049,-0.049 -0.146,-0.097 -0.243,-0.097c-1.356,-0.581 -2.761,-1.114 -4.118,-1.696c-0.194,-0.097 -0.387,-0.194 -0.581,-0.29c-1.502,-0.63 -3.004,-1.26 -4.458,-1.938l-0.048,-0c-1.55,-0.679 -3.101,-1.405 -4.651,-2.132c-0.049,-0 -0.097,-0.049 -0.146,-0.049c-4.699,-2.228 -9.496,-4.651 -14.292,-7.267c-3.198,-1.744 -6.347,-3.537 -9.545,-5.426l-0.291,-0.146c-3.052,-1.841 -6.104,-3.73 -9.156,-5.668c-0.243,-0.146 -0.437,-0.291 -0.679,-0.436c-2.955,-1.89 -5.862,-3.828 -8.818,-5.863c-0.29,-0.194 -0.629,-0.436 -0.969,-0.678c-1.405,-0.969 -2.858,-1.987 -4.263,-3.004c-0.969,-0.678 -1.89,-1.357 -2.81,-2.035c-0.339,-0.242 -0.63,-0.436 -0.921,-0.678c-0.63,-0.485 -1.259,-0.921 -1.938,-1.405c-0.29,-0.242 -0.63,-0.533 -0.969,-0.775c-0.678,-0.485 -1.356,-1.018 -1.986,-1.502c-0.339,-0.243 -0.678,-0.485 -1.018,-0.776c-0.726,-0.581 -1.502,-1.162 -2.228,-1.744c-0.436,-0.339 -0.872,-0.678 -1.308,-1.017c-0.388,-0.339 -0.824,-0.678 -1.26,-1.018c-0.485,-0.387 -0.969,-0.775 -1.405,-1.162c-0.339,-0.243 -0.678,-0.533 -1.018,-0.824c-1.841,-1.502 -3.633,-3.004 -5.426,-4.506c-0.194,-0.194 -0.388,-0.339 -0.533,-0.484c-0.63,-0.533 -1.211,-1.018 -1.793,-1.551c-0.145,-0.145 -0.29,-0.242 -0.387,-0.339c-2.035,-1.744 -3.973,-3.537 -5.863,-5.281l-0.096,-0.048c-0.63,-0.582 -1.26,-1.212 -1.89,-1.793c-0.048,-0.048 -0.145,-0.145 -0.194,-0.194c-2.519,-2.374 -4.99,-4.796 -7.316,-7.17c-0.145,-0.146 -0.29,-0.291 -0.436,-0.436c-0.533,-0.533 -1.066,-1.066 -1.55,-1.599c-0.145,-0.146 -0.242,-0.242 -0.388,-0.388c-1.017,-1.066 -1.986,-2.083 -2.955,-3.149c-0.146,-0.145 -0.242,-0.242 -0.388,-0.388c-0.387,-0.436 -0.775,-0.872 -1.163,-1.308c-0.29,-0.29 -0.581,-0.63 -0.872,-0.92c-0.339,-0.388 -0.678,-0.775 -1.017,-1.163c-0.388,-0.388 -0.727,-0.824 -1.114,-1.211c-0.243,-0.339 -0.533,-0.63 -0.824,-0.969c-0.63,-0.679 -1.211,-1.405 -1.841,-2.084c-0.145,-0.193 -0.291,-0.387 -0.436,-0.581c-0.485,-0.581 -0.969,-1.163 -1.454,-1.744c-0.193,-0.194 -0.387,-0.436 -0.533,-0.63c-0.533,-0.63 -1.017,-1.211 -1.502,-1.841c-0.096,-0.146 -0.242,-0.291 -0.339,-0.436c-1.259,-1.599 -2.519,-3.149 -3.682,-4.748c-0.048,-0.049 -0.097,-0.049 -0.097,-0.097c-0.581,-0.775 -1.163,-1.551 -1.744,-2.326c0,-0.048 -0.048,-0.097 -0.097,-0.145c-1.744,-2.374 -3.44,-4.797 -5.039,-7.219c0,-0.049 -0.048,-0.049 -0.048,-0.097c-0.533,-0.775 -1.018,-1.55 -1.502,-2.326c-0.048,-0.048 -0.048,-0.048 -0.048,-0.096c-1.018,-1.551 -1.938,-3.101 -2.859,-4.652c-0.097,-0.145 -0.194,-0.339 -0.291,-0.484c-0.339,-0.533 -0.63,-1.114 -0.969,-1.647c-0.145,-0.291 -0.29,-0.533 -0.436,-0.824c-0.242,-0.388 -0.484,-0.824 -0.726,-1.26c-0.146,-0.339 -0.34,-0.678 -0.533,-0.969c-0.097,-0.194 -0.194,-0.387 -0.291,-0.581c-7.268,-13.711 -11.192,-26.696 -11.337,-38.13l-0.049,-1.066l-192.539,268.459c-19.379,27.035 16.522,87.307 78.392,131.686c61.87,44.38 130.475,59.012 149.855,32.026l192.538,-268.46l-0.969,0.291c-11.434,3.731 -25.872,4.021 -42.151,1.066m16.085,-151.211c-1.114,0.775 -2.228,1.55 -3.343,2.325c-3.246,2.229 -6.346,4.361 -8.72,6.735c14.534,13.033 25.872,26.405 33.672,39.728c4.409,7.559 14.002,26.212 7.219,35.756c-6.831,9.496 -27.568,6.396 -36.192,4.603c-29.699,-6.298 -57.413,-23.983 -71.318,-33.963c-13.905,-9.932 -39.535,-30.572 -55.038,-56.686c-4.458,-7.558 -14.051,-26.211 -7.219,-35.708c6.782,-9.544 27.567,-6.395 36.143,-4.651c15.165,3.149 31.395,9.545 48.45,19.138c1.453,-2.956 2.47,-6.638 3.585,-10.465c0.339,-1.26 0.727,-2.568 1.114,-3.876c-48.11,-26.744 -92.635,-32.122 -106.589,-12.646c-16.909,23.595 15.601,77.035 71.027,116.764c55.378,39.777 116.473,53.44 133.382,29.845c14.002,-19.477 -5.378,-59.932 -46.173,-96.899m-47.48,-8.479c3.73,-5.184 11.046,-6.347 16.279,-2.568c5.281,3.779 6.541,11.095 2.81,16.279c-3.682,5.136 -10.95,6.202 -16.231,2.423c-5.232,-3.731 -6.54,-10.998 -2.858,-16.134m15.891,-30.475c3.731,-5.184 11.047,-6.347 16.328,-2.568l7.849,5.621c5.281,3.779 6.492,11.095 2.761,16.279c-3.73,5.184 -11.046,6.347 -16.279,2.567l-7.897,-5.62c-5.136,-3.73 -6.444,-11.143 -2.762,-16.279m-30.474,36.628c-2.811,3.925 -1.89,9.496 2.083,12.355l18.072,12.936c3.972,2.858 9.544,1.986 12.354,-1.987l9.835,-13.662c3.101,-4.312 7.849,-7.559 12.452,-10.756c4.36,-2.956 8.818,-6.056 11.531,-9.787c7.219,-10.078 4.797,-24.176 -5.329,-31.492l-7.898,-5.62c-10.174,-7.316 -24.321,-5.039 -31.492,4.99c-2.713,3.779 -4.215,9.06 -5.62,14.099c-1.502,5.378 -3.052,10.949 -6.153,15.261l-9.835,13.663Zm21.463,4.409c2.083,1.502 5.087,1.066 6.492,-0.921c1.55,-2.131 1.066,-5.038 -1.114,-6.589c-2.132,-1.55 -5.039,-1.114 -6.59,1.018c-1.453,2.035 -0.872,4.99 1.212,6.492m-65.359,-37.742c-11.822,-2.423 -26.163,-2.81 -29.748,2.18c-3.585,4.99 1.357,18.459 7.461,28.876c14.874,25.048 39.729,45.058 53.198,54.7c13.469,9.69 40.359,26.792 68.895,32.848c11.774,2.471 26.163,2.811 29.748,-2.18c3.537,-4.99 -1.405,-18.459 -7.509,-28.876c-7.316,-12.5 -17.878,-25.048 -31.444,-37.354l-14.39,26.841l-0.096,0.145c-6.25,8.479 -15.892,12.936 -25.679,12.936c-6.54,0 -13.13,-1.986 -18.798,-6.201c-14.148,-10.369 -17.151,-30.33 -6.783,-44.477l0.291,-0.291l20.736,-21.076c-16.182,-9.06 -31.541,-15.116 -45.882,-18.071m81.153,7.364l7.898,5.669c2.18,1.55 5.087,1.066 6.589,-1.066c1.55,-2.132 1.066,-5.039 -1.115,-6.589l-7.848,-5.669c-2.084,-1.453 -5.136,-0.969 -6.638,1.066c-1.454,2.035 -0.921,5.136 1.114,6.589" style="fill:#fff;fill-rule:nonzero;"/><path d="M388.493,167.287l-1.938,-4.7c-0.63,-1.502 -2.374,-2.228 -3.924,-1.599l-31.396,12.936l2.907,6.977l34.351,-13.614Z" style="fill:#fff;fill-rule:nonzero;"/><path d="M399.888,195.419l-34.224,13.564l-4.379,-11.049l34.224,-13.564l4.379,11.049Z" style="fill:#fff;"/><path d="M394.122,181.388l-34.224,13.564l-4.379,-11.049l34.224,-13.564l4.379,11.049Z" style="fill:#fff;"/><path d="M405.65,209.407l-34.221,13.611l-4.375,-11.001l34.22,-13.611l4.376,11.001Z" style="fill:#fff;"/><path d="M335.882,184.181l2.035,4.991c-0,-0 0.048,0.048 0.048,0.096c0.049,0.049 0.097,0.146 0.145,0.194l0,0.049l0.049,0.097l23.11,56.153c0.194,0.387 0.291,0.872 0.34,1.405l1.695,4.215l9.642,-4.215l-27.423,-67.2l-9.641,4.215Z" style="fill:#fff;fill-rule:nonzero;"/><path d="M197.616,173.14c-0.145,-0 -0.242,-0.049 -0.339,-0.097c-0.969,-0.194 -22.287,-5.039 -39.293,11.628l78.828,191.424c23.886,-0.145 35.174,-18.169 35.223,-18.266l0.969,-1.356l78.004,-109.448l-21.027,-51.114l-132.365,-22.771Z" style="fill:#fff;fill-rule:nonzero;"/><path d="M414.709,231.105l-0.29,-0.727l-1.599,-3.925l-34.351,13.663l3.198,7.849l31.395,-12.887c0.727,-0.34 1.308,-0.921 1.647,-1.648c0.291,-0.775 0.291,-1.599 0,-2.325" style="fill:#fff;fill-rule:nonzero;"/><path d="M372.816,226.001l34.224,-13.564l4.379,11.048l-34.224,13.564l-4.379,-11.048Z" style="fill:#fff;"/><path d="M130.247,190.286l82.897,201.356c10.126,-4.651 14.002,-7.751 15.456,-9.302l-80.814,-196.318c-2.132,-0.048 -7.074,0.485 -17.539,4.264" style="fill:#fff;fill-rule:nonzero;"/><path d="M109.006,434.901l-83.541,-201.984l94.996,-39.291l83.541,201.984l-94.996,39.291Z" style="fill:#fff;"/><path d="M105.358,435.902l-44.336,18.144l-82.611,-201.866l44.336,-18.144l82.611,201.866Z" style="fill:#fff;"/><path d="M-25.048,253.537l-39.923,16.279c-1.647,0.969 -2.326,3.101 -1.599,4.893l80.136,194.574l0.048,0.048l0,0.097c0.436,0.969 1.163,1.696 2.132,2.084c0.582,0.242 1.26,0.339 2.083,0.193l40.456,-16.569l-83.333,-201.599Z" style="fill:#fff;fill-rule:nonzero;"/></g></g></svg>